<svg width="128" height="50" viewBox="0 0 128 50" fill="none" xmlns="http://www.w3.org/2000/svg">
<g clip-path="url(#clip0_443_330)">
<path d="M65.7401 13.3401V0.551636H73.4641V1.93884H67.2669V6.23177H72.9716V7.61897H67.2669V13.3401H65.7319H65.7401Z" fill="#002E3B"/>
<path d="M76.0087 3.02233C75.6885 3.02233 75.4259 2.91562 75.2125 2.71041C74.999 2.50521 74.8923 2.24254 74.8923 1.92242C74.8923 1.60229 74.999 1.32321 75.2125 1.11801C75.4259 0.912799 75.6885 0.806091 76.0087 0.806091C76.3288 0.806091 76.5832 0.912799 76.7967 1.11801C77.0019 1.32321 77.1086 1.59409 77.1086 1.92242C77.1086 2.25075 77.0019 2.50521 76.7967 2.71041C76.5914 2.91562 76.3288 3.02233 76.0087 3.02233ZM75.2781 13.3484V4.40953H76.7228V13.3401H75.2781V13.3484Z" fill="#002E3B"/>
<path d="M79.366 13.3402V4.40954H80.7696V5.50945H81.024C81.18 5.12366 81.4262 4.83637 81.7546 4.64758C82.0829 4.467 82.5179 4.37671 83.0515 4.37671H84.1104V5.69003H82.9612C82.3127 5.69003 81.7956 5.87062 81.4016 6.23178C81.0076 6.59295 80.8106 7.15111 80.8106 7.90627V13.3484H79.366V13.3402Z" fill="#002E3B"/>
<path d="M89.2897 13.5946C88.1816 13.5946 87.2459 13.3401 86.4825 12.8312C85.7191 12.3223 85.2595 11.5097 85.1035 10.4016L86.4743 10.0897C86.5728 10.6724 86.7534 11.1321 87.0243 11.4686C87.2951 11.8052 87.6235 12.0432 88.0175 12.1828C88.4115 12.3223 88.8383 12.3962 89.2897 12.3962C89.9628 12.3962 90.4882 12.2648 90.8821 11.994C91.2679 11.7231 91.4649 11.3701 91.4649 10.9187C91.4649 10.4672 91.2761 10.1307 90.9068 9.9419C90.5374 9.75311 90.0285 9.59715 89.38 9.47403L88.6331 9.3427C88.0585 9.2442 87.5332 9.09645 87.0653 8.88303C86.5892 8.67783 86.2116 8.39874 85.9326 8.04579C85.6535 7.69283 85.5139 7.24958 85.5139 6.71605C85.5139 5.91163 85.8258 5.2878 86.4497 4.83635C87.0735 4.38489 87.8943 4.16327 88.9122 4.16327C89.93 4.16327 90.7426 4.3931 91.3664 4.84456C91.9903 5.30422 92.4007 5.94447 92.5813 6.7735L91.2269 7.11825C91.1202 6.4698 90.8575 6.01834 90.4389 5.75568C90.0203 5.49301 89.5114 5.36168 88.9039 5.36168C88.2965 5.36168 87.8123 5.47659 87.4593 5.69822C87.1063 5.92805 86.9258 6.25638 86.9258 6.69142C86.9258 7.12646 87.0899 7.43017 87.4265 7.63537C87.763 7.83237 88.2062 7.98833 88.7726 8.08683L89.5196 8.21816C90.1516 8.32487 90.7262 8.48083 91.2269 8.66141C91.7358 8.8502 92.1298 9.12107 92.4335 9.47403C92.729 9.82699 92.885 10.2866 92.885 10.8612C92.885 11.7395 92.5566 12.4126 91.9082 12.8887C91.2597 13.3648 90.3814 13.6028 89.2897 13.6028V13.5946Z" fill="#002E3B"/>
<path d="M98.0233 13.3402C97.5144 13.3402 97.1204 13.2006 96.8414 12.9215C96.5705 12.6425 96.4309 12.2567 96.4309 11.7724V5.66541H93.7468V4.40134H96.4309V1.22473H97.8756V4.40134H100.798V5.66541H97.8756V11.5508C97.8756 11.9201 98.0562 12.1007 98.4091 12.1007H100.404V13.3402H98.0316H98.0233Z" fill="#002E3B"/>
<path d="M69.9921 31.5215C69.0645 31.5215 68.2355 31.3573 67.5049 31.029C66.7744 30.7007 66.1998 30.2 65.7812 29.5433C65.3626 28.8784 65.1492 28.0494 65.1492 27.048V26.6622H66.6677V27.048C66.6677 28.1069 66.9796 28.8949 67.6034 29.412C68.2273 29.9291 69.0235 30.1918 69.9921 30.1918C70.9606 30.1918 71.7486 29.9619 72.274 29.5187C72.7993 29.0672 73.062 28.5009 73.062 27.8196C73.062 27.3435 72.947 26.9659 72.709 26.6868C72.471 26.4078 72.1426 26.1779 71.7158 25.9973C71.289 25.8168 70.7883 25.669 70.2137 25.5295L69.2615 25.2914C68.5146 25.0944 67.8579 24.8564 67.2915 24.5773C66.717 24.2982 66.2737 23.9288 65.9454 23.4692C65.6252 23.0095 65.4611 22.4267 65.4611 21.7044C65.4611 20.9821 65.6417 20.3665 66.0028 19.8411C66.364 19.3158 66.8647 18.9136 67.5214 18.6345C68.1698 18.3554 68.925 18.2159 69.7786 18.2159C70.6323 18.2159 71.4203 18.3636 72.1098 18.6591C72.7993 18.9546 73.341 19.3979 73.735 19.9725C74.129 20.547 74.326 21.2776 74.326 22.1559V22.9192H72.8075V22.1559C72.8075 21.532 72.6762 21.0313 72.4135 20.6537C72.1508 20.2762 71.7897 19.9971 71.3382 19.8165C70.8786 19.6359 70.3614 19.5456 69.7786 19.5456C68.9414 19.5456 68.2601 19.7344 67.7512 20.1038C67.2423 20.4732 66.9878 21.0067 66.9878 21.688C66.9878 22.1394 67.0945 22.5006 67.3162 22.7879C67.5378 23.0752 67.8497 23.2968 68.2519 23.4774C68.6541 23.658 69.1384 23.8057 69.6966 23.9453L70.6487 24.1833C71.3875 24.3393 72.0605 24.5609 72.6515 24.8318C73.2425 25.1026 73.7104 25.4802 74.0716 25.9481C74.4245 26.416 74.6051 27.0316 74.6051 27.7867C74.6051 28.5419 74.4163 29.1986 74.0387 29.7567C73.6612 30.3149 73.1276 30.7499 72.4381 31.0618C71.7486 31.3738 70.9442 31.5297 70.0167 31.5297L69.9921 31.5215Z" fill="#002E3B"/>
<path d="M77.6831 34.9198V33.6393H82.7969C83.1498 33.6393 83.3304 33.4587 83.3304 33.0893V29.8388H83.076C82.9528 30.0933 82.7723 30.3477 82.5178 30.594C82.2633 30.8402 81.9432 31.0454 81.541 31.1932C81.1388 31.3492 80.6299 31.423 80.0225 31.423C79.374 31.423 78.783 31.2835 78.2413 31.0044C77.6995 30.7253 77.2727 30.3067 76.9608 29.765C76.6489 29.2232 76.4929 28.5501 76.4929 27.7539V22.3282H77.9376V27.6472C77.9376 28.5255 78.1592 29.1657 78.6024 29.568C79.0457 29.9702 79.6449 30.1672 80.4001 30.1672C81.2537 30.1672 81.9514 29.8881 82.5014 29.3299C83.0513 28.7718 83.3222 27.9345 83.3222 26.8264V22.3282H84.7669V33.3438C84.7669 33.8281 84.6273 34.2138 84.3565 34.4929C84.0856 34.772 83.6834 34.9115 83.158 34.9115H77.6749L77.6831 34.9198Z" fill="#002E3B"/>
<path d="M87.4019 31.2671V22.3364H88.8055V23.855H89.0599C89.2569 23.4281 89.5853 23.0424 90.0531 22.6976C90.521 22.3529 91.2105 22.1805 92.1298 22.1805C92.8029 22.1805 93.4021 22.32 93.9274 22.5991C94.4528 22.8782 94.8796 23.2968 95.1997 23.8386C95.5198 24.3885 95.6758 25.0616 95.6758 25.866V31.2753H94.2311V25.9809C94.2311 25.0944 94.0095 24.446 93.5663 24.0438C93.123 23.6416 92.5238 23.4446 91.7687 23.4446C90.9068 23.4446 90.2009 23.7236 89.6591 24.2818C89.1174 24.84 88.8465 25.6772 88.8465 26.7853V31.2835H87.4019V31.2671Z" fill="#002E3B"/>
<path d="M102.316 31.5215C101.413 31.5215 100.625 31.3327 99.9442 30.9469C99.2629 30.5611 98.7294 30.0276 98.3518 29.3299C97.9742 28.6322 97.7854 27.8277 97.7854 26.9166V26.695C97.7854 25.7675 97.9742 24.963 98.3518 24.2653C98.7294 23.5676 99.2547 23.0341 99.9196 22.6483C100.593 22.2625 101.356 22.0737 102.218 22.0737C103.08 22.0737 103.802 22.2543 104.451 22.6155C105.099 22.9766 105.6 23.4938 105.969 24.1586C106.338 24.8317 106.519 25.6115 106.519 26.5144V27.1711H99.2301C99.2629 28.1314 99.5748 28.8866 100.158 29.4284C100.74 29.9701 101.471 30.241 102.349 30.241C103.113 30.241 103.704 30.0604 104.122 29.7074C104.541 29.3545 104.853 28.9359 105.074 28.4434L106.314 29.0426C106.133 29.4201 105.879 29.7977 105.559 30.1753C105.239 30.5529 104.812 30.8648 104.295 31.1275C103.777 31.3901 103.113 31.5133 102.308 31.5133L102.316 31.5215ZM99.2465 25.9891H105.058C105.009 25.16 104.73 24.5116 104.204 24.0519C103.679 23.5923 103.022 23.3542 102.218 23.3542C101.413 23.3542 100.732 23.5841 100.207 24.0519C99.6815 24.5198 99.3614 25.16 99.2383 25.9891H99.2465Z" fill="#002E3B"/>
<path d="M108.653 31.267V22.3364H110.057V23.4363H110.311C110.467 23.0505 110.713 22.7633 111.042 22.5745C111.37 22.3939 111.805 22.3036 112.339 22.3036H113.397V23.6169H112.248C111.6 23.6169 111.083 23.7975 110.689 24.1587C110.295 24.5198 110.098 25.078 110.098 25.8332V31.2752H108.653V31.267Z" fill="#002E3B"/>
<path d="M114.391 26.8427V26.5883C114.391 25.6525 114.579 24.8481 114.957 24.1751C115.335 23.502 115.843 22.9849 116.492 22.6237C117.14 22.2543 117.846 22.0737 118.61 22.0737C119.545 22.0737 120.268 22.2543 120.777 22.6155C121.286 22.9766 121.655 23.3706 121.901 23.8139H122.156V22.3364H123.526V33.3519C123.526 33.8362 123.395 34.222 123.124 34.5011C122.853 34.7802 122.468 34.9197 121.959 34.9197H115.893V33.6392H121.573C121.934 33.6392 122.123 33.4586 122.123 33.0892V29.691H121.868C121.721 29.9619 121.515 30.2246 121.245 30.479C120.974 30.7335 120.629 30.9469 120.202 31.1111C119.775 31.2752 119.242 31.3573 118.61 31.3573C117.846 31.3573 117.132 31.1767 116.492 30.8073C115.843 30.438 115.335 29.9209 114.957 29.2478C114.579 28.5747 114.391 27.7703 114.391 26.8427ZM118.995 30.0768C119.923 30.0768 120.67 29.7813 121.253 29.1985C121.827 28.6157 122.123 27.8113 122.123 26.7853V26.6375C122.123 25.6033 121.836 24.7989 121.253 24.2161C120.67 23.6415 119.923 23.346 118.995 23.346C118.068 23.346 117.329 23.6333 116.738 24.2161C116.147 24.7989 115.852 25.6033 115.852 26.6375V26.7853C115.852 27.8113 116.147 28.6157 116.738 29.1985C117.329 29.7813 118.084 30.0768 118.995 30.0768Z" fill="#002E3B"/>
<path d="M126.908 20.941C126.588 20.941 126.326 20.8343 126.112 20.6291C125.899 20.4239 125.792 20.1612 125.792 19.8411C125.792 19.521 125.899 19.2419 126.112 19.0367C126.326 18.8315 126.588 18.7248 126.908 18.7248C127.228 18.7248 127.483 18.8315 127.696 19.0367C127.902 19.2419 128.008 19.5128 128.008 19.8411C128.008 20.1695 127.902 20.4239 127.696 20.6291C127.491 20.8343 127.228 20.941 126.908 20.941ZM126.178 31.2671V22.3364H127.622V31.2671H126.178Z" fill="#002E3B"/>
<path d="M65.7402 49.1939V36.4054H67.2752V42.0856H73.2672V36.4054H74.8022V49.1939H73.2672V43.4728H67.2752V49.1939H65.7402Z" fill="#002E3B"/>
<path d="M81.5247 49.4484C80.6218 49.4484 79.8256 49.2596 79.1443 48.882C78.4548 48.5045 77.9213 47.9709 77.5355 47.2814C77.1497 46.5919 76.9609 45.7793 76.9609 44.8436V44.6055C76.9609 43.678 77.1497 42.8736 77.5355 42.1759C77.9213 41.4782 78.4548 40.9446 79.1443 40.567C79.8338 40.1895 80.63 40.0007 81.5247 40.0007C82.4194 40.0007 83.2239 40.1895 83.9051 40.567C84.5946 40.9446 85.1282 41.4782 85.514 42.1759C85.8998 42.8736 86.0885 43.678 86.0885 44.6055V44.8436C86.0885 45.7793 85.8998 46.5919 85.514 47.2814C85.1282 47.9709 84.5946 48.5045 83.9051 48.882C83.2157 49.2596 82.4194 49.4484 81.5247 49.4484ZM81.5247 48.1515C82.4769 48.1515 83.2321 47.8478 83.7984 47.2486C84.3648 46.6494 84.6521 45.8286 84.6521 44.8107V44.6466C84.6521 43.6205 84.3648 42.8079 83.7984 42.2087C83.2321 41.6095 82.4769 41.3058 81.5247 41.3058C80.5726 41.3058 79.8338 41.6095 79.2593 42.2087C78.6847 42.8079 78.3974 43.6287 78.3974 44.6466V44.8107C78.3974 45.8368 78.6847 46.6494 79.2593 47.2486C79.8338 47.8478 80.589 48.1515 81.5247 48.1515Z" fill="#002E3B"/>
<path d="M88.3048 49.1939V40.2633H89.7085V41.3796H89.9629C90.1353 41.0595 90.4144 40.7722 90.8002 40.5014C91.1859 40.2305 91.7359 40.0992 92.4418 40.0992C93.1477 40.0992 93.6977 40.2551 94.1327 40.5588C94.5678 40.8625 94.8797 41.2319 95.0767 41.6751H95.3311C95.5363 41.2401 95.8483 40.8625 96.2751 40.5588C96.6937 40.2551 97.2847 40.0992 98.0399 40.0992C98.6391 40.0992 99.1562 40.2223 99.6076 40.4603C100.059 40.7066 100.412 41.0513 100.675 41.511C100.937 41.9706 101.069 42.5124 101.069 43.1444V49.1939H99.6241V43.2758C99.6241 42.6766 99.4517 42.2087 99.1069 41.8557C98.7622 41.511 98.2779 41.3386 97.6541 41.3386C96.9974 41.3386 96.4557 41.552 96.037 41.9788C95.6184 42.4057 95.405 43.0213 95.405 43.8257V49.1939H93.9603V43.2758C93.9603 42.6766 93.788 42.2087 93.4432 41.8557C93.0985 41.511 92.6142 41.3386 91.9904 41.3386C91.3337 41.3386 90.7919 41.552 90.3733 41.9788C89.9547 42.4057 89.7413 43.0213 89.7413 43.8257V49.1939H88.2966H88.3048Z" fill="#002E3B"/>
<path d="M107.717 49.4484C106.814 49.4484 106.026 49.2596 105.345 48.8738C104.664 48.488 104.13 47.9545 103.753 47.2568C103.375 46.5591 103.186 45.7547 103.186 44.8436V44.6219C103.186 43.6944 103.375 42.89 103.753 42.1923C104.13 41.4946 104.656 40.961 105.32 40.5752C105.994 40.1895 106.757 40.0007 107.619 40.0007C108.481 40.0007 109.203 40.1813 109.851 40.5424C110.5 40.9036 111.001 41.4207 111.37 42.0856C111.739 42.7587 111.92 43.5384 111.92 44.4414V45.098H104.631C104.664 46.0584 104.976 46.8135 105.558 47.3553C106.141 47.897 106.872 48.1679 107.75 48.1679C108.513 48.1679 109.104 47.9873 109.523 47.6344C109.942 47.2814 110.254 46.8628 110.475 46.3703L111.715 46.9695C111.534 47.3471 111.28 47.7247 110.96 48.1022C110.639 48.4798 110.213 48.7917 109.695 49.0544C109.178 49.3171 108.513 49.4402 107.709 49.4402L107.717 49.4484ZM104.647 43.916H110.459C110.41 43.087 110.13 42.4385 109.605 41.9789C109.08 41.5192 108.423 41.2812 107.619 41.2812C106.814 41.2812 106.133 41.511 105.608 41.9789C105.082 42.4467 104.762 43.087 104.639 43.916H104.647Z" fill="#002E3B"/>
<path d="M117.658 49.4484C116.55 49.4484 115.614 49.1939 114.85 48.685C114.087 48.1761 113.627 47.3635 113.471 46.2554L114.842 45.9434C114.941 46.5262 115.121 46.9859 115.392 47.3224C115.663 47.659 115.991 47.897 116.385 48.0366C116.779 48.1761 117.206 48.25 117.658 48.25C118.331 48.25 118.856 48.1186 119.25 47.8478C119.636 47.5769 119.833 47.2239 119.833 46.7725C119.833 46.321 119.644 45.9845 119.275 45.7957C118.905 45.6069 118.396 45.4509 117.748 45.3278L117.001 45.1965C116.426 45.098 115.901 44.9502 115.433 44.7368C114.957 44.5316 114.58 44.2525 114.3 43.8996C114.021 43.5466 113.882 43.1034 113.882 42.5698C113.882 41.7654 114.194 41.1416 114.818 40.6901C115.441 40.2387 116.262 40.0171 117.28 40.0171C118.298 40.0171 119.111 40.2469 119.734 40.6983C120.358 41.158 120.769 41.7983 120.949 42.6273L119.595 42.972C119.488 42.3236 119.225 41.8721 118.807 41.6095C118.388 41.3468 117.879 41.2155 117.272 41.2155C116.664 41.2155 116.18 41.3304 115.827 41.552C115.474 41.7818 115.294 42.1102 115.294 42.5452C115.294 42.9802 115.458 43.284 115.794 43.4892C116.131 43.6862 116.574 43.8421 117.141 43.9406L117.887 44.072C118.52 44.1787 119.094 44.3346 119.595 44.5152C120.104 44.704 120.498 44.9749 120.801 45.3278C121.097 45.6808 121.253 46.1404 121.253 46.715C121.253 47.5933 120.925 48.2664 120.276 48.7425C119.628 49.2185 118.749 49.4566 117.658 49.4566V49.4484Z" fill="#002E3B"/>
<path d="M47.1402 1.81573H0V5.98554H47.1402V1.81573Z" fill="#C0972D"/>
<path d="M18.4933 16.1392L16.4084 18.2241L0 34.6325H5.89355L7.97845 32.5476L10.0305 30.4955V30.3149H10.2111L16.8024 23.7237L18.5015 22.0246L20.2088 20.3172L20.217 20.309H34.918H47.1484V16.1392H42.9786H18.4933Z" fill="#C0972D"/>
<path d="M20.2088 34.6325H42.9786V44.7943H0V48.9559H47.1402V46.8792V44.7943V34.6325V32.5476V30.4626H20.2088V34.6325Z" fill="#C0972D"/>
</g>
<defs>
<clipPath id="clip0_443_330">
<rect width="128" height="48.8968" fill="white" transform="translate(0 0.551636)"/>
</clipPath>
</defs>
</svg>
