<svg width="129" height="50" viewBox="0 0 129 50" fill="none" xmlns="http://www.w3.org/2000/svg">
<g clip-path="url(#clip0_98_122)">
<path d="M66.2099 13.3401V0.551636H73.9339V1.93884H67.7366V6.23177H73.4414V7.61897H67.7366V13.3401H66.2017H66.2099Z" fill="#002E3B"/>
<path d="M76.4781 3.02233C76.158 3.02233 75.8954 2.91562 75.6819 2.71041C75.4685 2.50521 75.3618 2.24254 75.3618 1.92242C75.3618 1.60229 75.4685 1.32321 75.6819 1.11801C75.8954 0.912799 76.158 0.806091 76.4781 0.806091C76.7983 0.806091 77.0527 0.912799 77.2661 1.11801C77.4713 1.32321 77.5781 1.59409 77.5781 1.92242C77.5781 2.25075 77.4713 2.50521 77.2661 2.71041C77.0609 2.91562 76.7983 3.02233 76.4781 3.02233ZM75.7476 13.3484V4.40953H77.1923V13.3401H75.7476V13.3484Z" fill="#002E3B"/>
<path d="M79.8354 13.3402V4.40954H81.2391V5.50945H81.4935C81.6495 5.12366 81.8957 4.83637 82.2241 4.64758C82.5524 4.467 82.9874 4.37671 83.521 4.37671H84.5798V5.69003H83.4307C82.7822 5.69003 82.2651 5.87062 81.8711 6.23178C81.4771 6.59295 81.2801 7.15111 81.2801 7.90627V13.3484H79.8354V13.3402Z" fill="#002E3B"/>
<path d="M89.759 13.5946C88.6509 13.5946 87.7151 13.3401 86.9517 12.8312C86.1884 12.3223 85.7287 11.5097 85.5728 10.4016L86.9435 10.0897C87.042 10.6724 87.2226 11.1321 87.4935 11.4686C87.7644 11.8052 88.0927 12.0432 88.4867 12.1828C88.8807 12.3223 89.3075 12.3962 89.759 12.3962C90.4321 12.3962 90.9574 12.2648 91.3514 11.994C91.7372 11.7231 91.9342 11.3701 91.9342 10.9187C91.9342 10.4672 91.7454 10.1307 91.376 9.9419C91.0066 9.75311 90.4977 9.59715 89.8493 9.47403L89.1023 9.3427C88.5277 9.2442 88.0024 9.09645 87.5345 8.88303C87.0585 8.67783 86.6809 8.39874 86.4018 8.04579C86.1227 7.69283 85.9832 7.24958 85.9832 6.71605C85.9832 5.91163 86.2951 5.2878 86.9189 4.83635C87.5427 4.38489 88.3636 4.16327 89.3814 4.16327C90.3992 4.16327 91.2118 4.3931 91.8357 4.84456C92.4595 5.30422 92.8699 5.94447 93.0505 6.7735L91.6961 7.11825C91.5894 6.4698 91.3268 6.01834 90.9081 5.75568C90.4895 5.49301 89.9806 5.36168 89.3732 5.36168C88.7658 5.36168 88.2815 5.47659 87.9285 5.69822C87.5756 5.92805 87.395 6.25638 87.395 6.69142C87.395 7.12646 87.5592 7.43017 87.8957 7.63537C88.2322 7.83237 88.6755 7.98833 89.2419 8.08683L89.9888 8.21816C90.6208 8.32487 91.1954 8.48083 91.6961 8.66141C92.205 8.8502 92.599 9.12107 92.9028 9.47403C93.1983 9.82699 93.3542 10.2866 93.3542 10.8612C93.3542 11.7395 93.0259 12.4126 92.3774 12.8887C91.729 13.3648 90.8507 13.6028 89.759 13.6028V13.5946Z" fill="#002E3B"/>
<path d="M98.4928 13.3402C97.9839 13.3402 97.5899 13.2006 97.3108 12.9215C97.04 12.6425 96.9004 12.2567 96.9004 11.7724V5.66541H94.2163V4.40134H96.9004V1.22473H98.3451V4.40134H101.267V5.66541H98.3451V11.5508C98.3451 11.9201 98.5257 12.1007 98.8786 12.1007H100.873V13.3402H98.501H98.4928Z" fill="#002E3B"/>
<path d="M70.4615 31.5215C69.534 31.5215 68.705 31.3573 67.9744 31.029C67.2439 30.7007 66.6693 30.2 66.2507 29.5433C65.8321 28.8784 65.6187 28.0494 65.6187 27.048V26.6622H67.1372V27.048C67.1372 28.1069 67.4491 28.8949 68.0729 29.412C68.6968 29.9291 69.493 30.1918 70.4615 30.1918C71.4301 30.1918 72.2181 29.9619 72.7434 29.5187C73.2688 29.0672 73.5314 28.5009 73.5314 27.8196C73.5314 27.3435 73.4165 26.9659 73.1785 26.6868C72.9404 26.4078 72.6121 26.1779 72.1853 25.9973C71.7585 25.8168 71.2577 25.669 70.6832 25.5295L69.731 25.2914C68.984 25.0944 68.3274 24.8564 67.761 24.5773C67.1864 24.2982 66.7432 23.9288 66.4149 23.4692C66.0947 23.0095 65.9306 22.4267 65.9306 21.7044C65.9306 20.9821 66.1112 20.3665 66.4723 19.8411C66.8335 19.3158 67.3342 18.9136 67.9908 18.6345C68.6393 18.3554 69.3945 18.2159 70.2481 18.2159C71.1018 18.2159 71.8898 18.3636 72.5793 18.6591C73.2688 18.9546 73.8105 19.3979 74.2045 19.9725C74.5985 20.547 74.7955 21.2776 74.7955 22.1559V22.9192H73.277V22.1559C73.277 21.532 73.1456 21.0313 72.883 20.6537C72.6203 20.2762 72.2592 19.9971 71.8077 19.8165C71.348 19.6359 70.8309 19.5456 70.2481 19.5456C69.4109 19.5456 68.7296 19.7344 68.2207 20.1038C67.7118 20.4732 67.4573 21.0067 67.4573 21.688C67.4573 22.1394 67.564 22.5006 67.7856 22.7879C68.0073 23.0752 68.3192 23.2968 68.7214 23.4774C69.1236 23.658 69.6079 23.8057 70.166 23.9453L71.1182 24.1833C71.8569 24.3393 72.53 24.5609 73.121 24.8318C73.712 25.1026 74.1799 25.4802 74.5411 25.9481C74.894 26.416 75.0746 27.0316 75.0746 27.7867C75.0746 28.5419 74.8858 29.1986 74.5082 29.7567C74.1306 30.3149 73.5971 30.7499 72.9076 31.0618C72.2181 31.3738 71.4137 31.5297 70.4862 31.5297L70.4615 31.5215Z" fill="#002E3B"/>
<path d="M78.1526 34.9198V33.6393H83.2664C83.6193 33.6393 83.7999 33.4587 83.7999 33.0893V29.8388H83.5454C83.4223 30.0933 83.2417 30.3477 82.9873 30.594C82.7328 30.8402 82.4127 31.0454 82.0105 31.1932C81.6083 31.3492 81.0994 31.423 80.492 31.423C79.8435 31.423 79.2525 31.2835 78.7108 31.0044C78.169 30.7253 77.7422 30.3067 77.4303 29.765C77.1184 29.2232 76.9624 28.5501 76.9624 27.7539V22.3282H78.4071V27.6472C78.4071 28.5255 78.6287 29.1657 79.0719 29.568C79.5152 29.9702 80.1144 30.1672 80.8695 30.1672C81.7232 30.1672 82.4209 29.8881 82.9709 29.3299C83.5208 28.7718 83.7917 27.9345 83.7917 26.8264V22.3282H85.2363V33.3438C85.2363 33.8281 85.0968 34.2138 84.8259 34.4929C84.5551 34.772 84.1529 34.9115 83.6275 34.9115H78.1444L78.1526 34.9198Z" fill="#002E3B"/>
<path d="M87.8711 31.2671V22.3364H89.2747V23.855H89.5292C89.7262 23.4281 90.0545 23.0424 90.5224 22.6976C90.9902 22.3529 91.6797 22.1805 92.5991 22.1805C93.2721 22.1805 93.8713 22.32 94.3967 22.5991C94.922 22.8782 95.3488 23.2968 95.669 23.8386C95.9891 24.3885 96.145 25.0616 96.145 25.866V31.2753H94.7004V25.9809C94.7004 25.0944 94.4788 24.446 94.0355 24.0438C93.5923 23.6416 92.9931 23.4446 92.2379 23.4446C91.376 23.4446 90.6701 23.7236 90.1284 24.2818C89.5866 24.84 89.3157 25.6772 89.3157 26.7853V31.2835H87.8711V31.2671Z" fill="#002E3B"/>
<path d="M102.786 31.5215C101.883 31.5215 101.095 31.3327 100.414 30.9469C99.7324 30.5611 99.1988 30.0276 98.8213 29.3299C98.4437 28.6322 98.2549 27.8277 98.2549 26.9166V26.695C98.2549 25.7675 98.4437 24.963 98.8213 24.2653C99.1988 23.5676 99.7242 23.0341 100.389 22.6483C101.062 22.2625 101.825 22.0737 102.687 22.0737C103.549 22.0737 104.272 22.2543 104.92 22.6155C105.568 22.9766 106.069 23.4938 106.439 24.1586C106.808 24.8317 106.989 25.6115 106.989 26.5144V27.1711H99.6995C99.7324 28.1314 100.044 28.8866 100.627 29.4284C101.21 29.9701 101.94 30.241 102.819 30.241C103.582 30.241 104.173 30.0604 104.592 29.7074C105.01 29.3545 105.322 28.9359 105.544 28.4434L106.783 29.0426C106.603 29.4201 106.348 29.7977 106.028 30.1753C105.708 30.5529 105.281 30.8648 104.764 31.1275C104.247 31.3901 103.582 31.5133 102.778 31.5133L102.786 31.5215ZM99.716 25.9891H105.527C105.478 25.16 105.199 24.5116 104.674 24.0519C104.148 23.5923 103.492 23.3542 102.687 23.3542C101.883 23.3542 101.202 23.5841 100.676 24.0519C100.151 24.5198 99.8309 25.16 99.7078 25.9891H99.716Z" fill="#002E3B"/>
<path d="M109.123 31.267V22.3364H110.526V23.4363H110.781C110.937 23.0505 111.183 22.7633 111.511 22.5745C111.84 22.3939 112.275 22.3036 112.808 22.3036H113.867V23.6169H112.718C112.069 23.6169 111.552 23.7975 111.158 24.1587C110.764 24.5198 110.567 25.078 110.567 25.8332V31.2752H109.123V31.267Z" fill="#002E3B"/>
<path d="M114.86 26.8427V26.5883C114.86 25.6525 115.049 24.8481 115.427 24.1751C115.804 23.502 116.313 22.9849 116.962 22.6237C117.61 22.2543 118.316 22.0737 119.079 22.0737C120.015 22.0737 120.737 22.2543 121.246 22.6155C121.755 22.9766 122.125 23.3706 122.371 23.8139H122.625V22.3364H123.996V33.3519C123.996 33.8362 123.865 34.222 123.594 34.5011C123.323 34.7802 122.937 34.9197 122.428 34.9197H116.362V33.6392H122.043C122.404 33.6392 122.593 33.4586 122.593 33.0892V29.691H122.338C122.19 29.9619 121.985 30.2246 121.714 30.479C121.443 30.7335 121.099 30.9469 120.672 31.1111C120.245 31.2752 119.711 31.3573 119.079 31.3573C118.316 31.3573 117.602 31.1767 116.962 30.8073C116.313 30.438 115.804 29.9209 115.427 29.2478C115.049 28.5747 114.86 27.7703 114.86 26.8427ZM119.465 30.0768C120.393 30.0768 121.14 29.7813 121.722 29.1985C122.297 28.6157 122.593 27.8113 122.593 26.7853V26.6375C122.593 25.6033 122.305 24.7989 121.722 24.2161C121.14 23.6415 120.393 23.346 119.465 23.346C118.538 23.346 117.799 23.6333 117.208 24.2161C116.617 24.7989 116.321 25.6033 116.321 26.6375V26.7853C116.321 27.8113 116.617 28.6157 117.208 29.1985C117.799 29.7813 118.554 30.0768 119.465 30.0768Z" fill="#002E3B"/>
<path d="M127.378 20.941C127.057 20.941 126.795 20.8343 126.581 20.6291C126.368 20.4239 126.261 20.1612 126.261 19.8411C126.261 19.521 126.368 19.2419 126.581 19.0367C126.795 18.8315 127.057 18.7248 127.378 18.7248C127.698 18.7248 127.952 18.8315 128.166 19.0367C128.371 19.2419 128.477 19.5128 128.477 19.8411C128.477 20.1695 128.371 20.4239 128.166 20.6291C127.96 20.8343 127.698 20.941 127.378 20.941ZM126.647 31.2671V22.3364H128.092V31.2671H126.647Z" fill="#002E3B"/>
<path d="M66.2095 49.1939V36.4054H67.7444V42.0856H73.7365V36.4054H75.2714V49.1939H73.7365V43.4728H67.7444V49.1939H66.2095Z" fill="#002E3B"/>
<path d="M81.994 49.4484C81.0911 49.4484 80.2949 49.2596 79.6136 48.882C78.9241 48.5045 78.3905 47.9709 78.0048 47.2814C77.619 46.5919 77.4302 45.7793 77.4302 44.8436V44.6055C77.4302 43.678 77.619 42.8736 78.0048 42.1759C78.3905 41.4782 78.9241 40.9446 79.6136 40.567C80.3031 40.1895 81.0993 40.0007 81.994 40.0007C82.8887 40.0007 83.6931 40.1895 84.3744 40.567C85.0639 40.9446 85.5974 41.4782 85.9832 42.1759C86.369 42.8736 86.5578 43.678 86.5578 44.6055V44.8436C86.5578 45.7793 86.369 46.5919 85.9832 47.2814C85.5974 47.9709 85.0639 48.5045 84.3744 48.882C83.6849 49.2596 82.8887 49.4484 81.994 49.4484ZM81.994 48.1515C82.9461 48.1515 83.7013 47.8478 84.2677 47.2486C84.834 46.6494 85.1213 45.8286 85.1213 44.8107V44.6466C85.1213 43.6205 84.834 42.8079 84.2677 42.2087C83.7013 41.6095 82.9461 41.3058 81.994 41.3058C81.0418 41.3058 80.3031 41.6095 79.7285 42.2087C79.1539 42.8079 78.8666 43.6287 78.8666 44.6466V44.8107C78.8666 45.8368 79.1539 46.6494 79.7285 47.2486C80.3031 47.8478 81.0582 48.1515 81.994 48.1515Z" fill="#002E3B"/>
<path d="M88.7743 49.1939V40.2633H90.1779V41.3796H90.4324C90.6048 41.0595 90.8839 40.7722 91.2696 40.5014C91.6554 40.2305 92.2054 40.0992 92.9113 40.0992C93.6172 40.0992 94.1672 40.2551 94.6022 40.5588C95.0372 40.8625 95.3492 41.2319 95.5462 41.6751H95.8006C96.0058 41.2401 96.3177 40.8625 96.7446 40.5588C97.1632 40.2551 97.7542 40.0992 98.5094 40.0992C99.1086 40.0992 99.6257 40.2223 100.077 40.4603C100.529 40.7066 100.882 41.0513 101.144 41.511C101.407 41.9706 101.538 42.5124 101.538 43.1444V49.1939H100.094V43.2758C100.094 42.6766 99.9212 42.2087 99.5764 41.8557C99.2317 41.511 98.7474 41.3386 98.1236 41.3386C97.4669 41.3386 96.9251 41.552 96.5065 41.9788C96.0879 42.4057 95.8745 43.0213 95.8745 43.8257V49.1939H94.4298V43.2758C94.4298 42.6766 94.2575 42.2087 93.9127 41.8557C93.568 41.511 93.0837 41.3386 92.4598 41.3386C91.8032 41.3386 91.2614 41.552 90.8428 41.9788C90.4242 42.4057 90.2108 43.0213 90.2108 43.8257V49.1939H88.7661H88.7743Z" fill="#002E3B"/>
<path d="M108.187 49.4484C107.284 49.4484 106.496 49.2596 105.815 48.8738C105.133 48.488 104.6 47.9545 104.222 47.2568C103.845 46.5591 103.656 45.7547 103.656 44.8436V44.6219C103.656 43.6944 103.845 42.89 104.222 42.1923C104.6 41.4946 105.125 40.961 105.79 40.5752C106.463 40.1895 107.226 40.0007 108.088 40.0007C108.95 40.0007 109.672 40.1813 110.321 40.5424C110.969 40.9036 111.47 41.4207 111.839 42.0856C112.209 42.7587 112.389 43.5384 112.389 44.4414V45.098H105.1C105.133 46.0584 105.445 46.8135 106.028 47.3553C106.611 47.897 107.341 48.1679 108.22 48.1679C108.983 48.1679 109.574 47.9873 109.993 47.6344C110.411 47.2814 110.723 46.8628 110.945 46.3703L112.184 46.9695C112.004 47.3471 111.749 47.7247 111.429 48.1022C111.109 48.4798 110.682 48.7917 110.165 49.0544C109.648 49.3171 108.983 49.4402 108.179 49.4402L108.187 49.4484ZM105.117 43.916H110.928C110.879 43.087 110.6 42.4385 110.075 41.9789C109.549 41.5192 108.893 41.2812 108.088 41.2812C107.284 41.2812 106.603 41.511 106.077 41.9789C105.552 42.4467 105.232 43.087 105.109 43.916H105.117Z" fill="#002E3B"/>
<path d="M118.127 49.4484C117.019 49.4484 116.083 49.1939 115.32 48.685C114.557 48.1761 114.097 47.3635 113.941 46.2554L115.312 45.9434C115.41 46.5262 115.591 46.9859 115.862 47.3224C116.133 47.659 116.461 47.897 116.855 48.0366C117.249 48.1761 117.676 48.25 118.127 48.25C118.8 48.25 119.326 48.1186 119.72 47.8478C120.105 47.5769 120.302 47.2239 120.302 46.7725C120.302 46.321 120.114 45.9845 119.744 45.7957C119.375 45.6069 118.866 45.4509 118.217 45.3278L117.47 45.1965C116.896 45.098 116.371 44.9502 115.903 44.7368C115.427 44.5316 115.049 44.2525 114.77 43.8996C114.491 43.5466 114.351 43.1034 114.351 42.5698C114.351 41.7654 114.663 41.1416 115.287 40.6901C115.911 40.2387 116.732 40.0171 117.75 40.0171C118.767 40.0171 119.58 40.2469 120.204 40.6983C120.828 41.158 121.238 41.7983 121.419 42.6273L120.064 42.972C119.958 42.3236 119.695 41.8721 119.276 41.6095C118.858 41.3468 118.349 41.2155 117.741 41.2155C117.134 41.2155 116.65 41.3304 116.297 41.552C115.944 41.7818 115.763 42.1102 115.763 42.5452C115.763 42.9802 115.927 43.284 116.264 43.4892C116.6 43.6862 117.044 43.8421 117.61 43.9406L118.357 44.072C118.989 44.1787 119.564 44.3346 120.064 44.5152C120.573 44.704 120.967 44.9749 121.271 45.3278C121.566 45.6808 121.722 46.1404 121.722 46.715C121.722 47.5933 121.394 48.2664 120.746 48.7425C120.097 49.2185 119.219 49.4566 118.127 49.4566V49.4484Z" fill="#002E3B"/>
<path d="M47.6099 1.81573H0.469727V5.98554H47.6099V1.81573Z" fill="#002E3B"/>
<path d="M18.963 16.1392L16.8781 18.2241L0.469727 34.6325H6.36328L8.44818 32.5476L10.5003 30.4955V30.3149H10.6808L17.2721 23.7237L18.9712 22.0246L20.6785 20.3172L20.6867 20.309H35.3878H47.6181V16.1392H43.4483H18.963Z" fill="#002E3B"/>
<path d="M20.6785 34.6325H43.4483V44.7943H0.469727V48.9559H47.6099V46.8792V44.7943V34.6325V32.5476V30.4626H20.6785V34.6325Z" fill="#002E3B"/>
</g>
<defs>
<clipPath id="clip0_98_122">
<rect width="128" height="48.8968" fill="white" transform="translate(0.469727 0.551636)"/>
</clipPath>
</defs>
</svg>
