<svg width="128" height="49" viewBox="0 0 128 49" fill="none" xmlns="http://www.w3.org/2000/svg">
<g clip-path="url(#clip0_115_8868)">
<path d="M65.7401 12.7885V0H73.4641V1.3872H67.2669V5.68013H72.9716V7.06733H67.2669V12.7885H65.7319H65.7401Z" fill="white"/>
<path d="M76.0084 2.47063C75.6883 2.47063 75.4256 2.36392 75.2122 2.15872C74.9988 1.95351 74.8921 1.69084 74.8921 1.37072C74.8921 1.0506 74.9988 0.771517 75.2122 0.566309C75.4256 0.361102 75.6883 0.254395 76.0084 0.254395C76.3285 0.254395 76.583 0.361102 76.7964 0.566309C77.0016 0.771517 77.1083 1.04239 77.1083 1.37072C77.1083 1.69905 77.0016 1.95351 76.7964 2.15872C76.5912 2.36392 76.3285 2.47063 76.0084 2.47063ZM75.2779 12.7967V3.85783H76.7225V12.7884H75.2779V12.7967Z" fill="white"/>
<path d="M79.3657 12.7886V3.85803H80.7693V4.95794H81.0238C81.1798 4.57215 81.426 4.28486 81.7543 4.09607C82.0827 3.91549 82.5177 3.8252 83.0512 3.8252H84.1101V5.13852H82.9609C82.3125 5.13852 81.7954 5.3191 81.4014 5.68027C81.0074 6.04143 80.8104 6.5996 80.8104 7.35476V12.7969H79.3657V12.7886Z" fill="white"/>
<path d="M89.2893 13.0431C88.1811 13.0431 87.2454 12.7887 86.482 12.2798C85.7186 11.7709 85.259 10.9582 85.103 9.85011L86.4738 9.5382C86.5723 10.121 86.7529 10.5806 87.0238 10.9172C87.2946 11.2537 87.623 11.4918 88.017 11.6313C88.411 11.7709 88.8378 11.8447 89.2893 11.8447C89.9623 11.8447 90.4877 11.7134 90.8817 11.4425C91.2675 11.1716 91.4644 10.8187 91.4644 10.3672C91.4644 9.91578 91.2757 9.57924 90.9063 9.39045C90.5369 9.20166 90.028 9.0457 89.3795 8.92258L88.6326 8.79124C88.058 8.69274 87.5327 8.545 87.0648 8.33158C86.5887 8.12637 86.2111 7.84729 85.9321 7.49434C85.653 7.14138 85.5134 6.69813 85.5134 6.16459C85.5134 5.36018 85.8254 4.73635 86.4492 4.2849C87.073 3.83344 87.8938 3.61182 88.9117 3.61182C89.9295 3.61182 90.7421 3.84165 91.3659 4.2931C91.9898 4.75277 92.4002 5.39301 92.5808 6.22205L91.2264 6.5668C91.1197 5.91834 90.857 5.46689 90.4384 5.20422C90.0198 4.94156 89.5109 4.81023 88.9035 4.81023C88.296 4.81023 87.8118 4.92514 87.4588 5.14677C87.1059 5.3766 86.9253 5.70493 86.9253 6.13997C86.9253 6.57501 87.0894 6.87871 87.426 7.08392C87.7625 7.28092 88.2058 7.43688 88.7721 7.53538L89.5191 7.66671C90.1511 7.77342 90.7257 7.92937 91.2264 8.10996C91.7353 8.29875 92.1293 8.56962 92.433 8.92258C92.7285 9.27553 92.8845 9.7352 92.8845 10.3098C92.8845 11.1881 92.5562 11.8611 91.9077 12.3372C91.2592 12.8133 90.381 13.0513 89.2893 13.0513V13.0431Z" fill="white"/>
<path d="M98.0231 12.7883C97.5142 12.7883 97.1202 12.6487 96.8411 12.3697C96.5702 12.0906 96.4307 11.7048 96.4307 11.2205V5.11353H93.7466V3.84946H96.4307V0.672852H97.8753V3.84946H100.798V5.11353H97.8753V10.9989C97.8753 11.3682 98.0559 11.5488 98.4089 11.5488H100.404V12.7883H98.0313H98.0231Z" fill="white"/>
<path d="M69.9918 30.9697C69.0643 30.9697 68.2352 30.8055 67.5047 30.4772C66.7742 30.1489 66.1996 29.6482 65.781 28.9915C65.3623 28.3266 65.1489 27.4976 65.1489 26.4962V26.1104H66.6675V26.4962C66.6675 27.555 66.9794 28.343 67.6032 28.8602C68.227 29.3773 69.0232 29.64 69.9918 29.64C70.9604 29.64 71.7484 29.4101 72.2737 28.9669C72.799 28.5154 73.0617 27.949 73.0617 27.2678C73.0617 26.7917 72.9468 26.4141 72.7088 26.135C72.4707 25.8559 72.1424 25.6261 71.7156 25.4455C71.2887 25.2649 70.788 25.1172 70.2134 24.9776L69.2613 24.7396C68.5143 24.5426 67.8577 24.3046 67.2913 24.0255C66.7167 23.7464 66.2735 23.377 65.9451 22.9174C65.625 22.4577 65.4608 21.8749 65.4608 21.1526C65.4608 20.4303 65.6414 19.8146 66.0026 19.2893C66.3638 18.764 66.8645 18.3618 67.5211 18.0827C68.1696 17.8036 68.9247 17.6641 69.7784 17.6641C70.6321 17.6641 71.4201 17.8118 72.1095 18.1073C72.799 18.4028 73.3408 18.8461 73.7348 19.4206C74.1288 19.9952 74.3258 20.7258 74.3258 21.604V22.3674H72.8073V21.604C72.8073 20.9802 72.6759 20.4795 72.4133 20.1019C72.1506 19.7243 71.7894 19.4453 71.338 19.2647C70.8783 19.0841 70.3612 18.9938 69.7784 18.9938C68.9412 18.9938 68.2599 19.1826 67.751 19.552C67.242 19.9213 66.9876 20.4549 66.9876 21.1362C66.9876 21.5876 67.0943 21.9488 67.3159 22.2361C67.5375 22.5234 67.8495 22.745 68.2517 22.9256C68.6539 23.1062 69.1382 23.2539 69.6963 23.3934L70.6485 23.6315C71.3872 23.7874 72.0603 24.0091 72.6513 24.2799C73.2423 24.5508 73.7102 24.9284 74.0713 25.3963C74.4243 25.8641 74.6049 26.4798 74.6049 27.2349C74.6049 27.9901 74.4161 28.6467 74.0385 29.2049C73.6609 29.7631 73.1274 30.1981 72.4379 30.51C71.7484 30.8219 70.944 30.9779 70.0164 30.9779L69.9918 30.9697Z" fill="white"/>
<path d="M77.6829 34.3679V33.0874H82.7966C83.1496 33.0874 83.3302 32.9068 83.3302 32.5374V29.2869H83.0757C82.9526 29.5414 82.772 29.7959 82.5176 30.0421C82.2631 30.2884 81.943 30.4936 81.5408 30.6413C81.1386 30.7973 80.6296 30.8711 80.0222 30.8711C79.3738 30.8711 78.7828 30.7316 78.241 30.4525C77.6993 30.1734 77.2725 29.7548 76.9605 29.2131C76.6486 28.6713 76.4927 27.9982 76.4927 27.202V21.7764H77.9373V27.0953C77.9373 27.9736 78.159 28.6139 78.6022 29.0161C79.0455 29.4183 79.6447 29.6153 80.3998 29.6153C81.2535 29.6153 81.9512 29.3362 82.5011 28.778C83.0511 28.2199 83.322 27.3826 83.322 26.2745V21.7764H84.7666V32.7919C84.7666 33.2762 84.6271 33.662 84.3562 33.941C84.0853 34.2201 83.6831 34.3597 83.1578 34.3597H77.6747L77.6829 34.3679Z" fill="white"/>
<path d="M87.4014 30.7155V21.7849H88.805V23.3034H89.0594C89.2564 22.8766 89.5848 22.4908 90.0526 22.146C90.5205 21.8013 91.21 21.6289 92.1293 21.6289C92.8024 21.6289 93.4016 21.7684 93.927 22.0475C94.4523 22.3266 94.8791 22.7452 95.1992 23.287C95.5194 23.8369 95.6753 24.51 95.6753 25.3144V30.7237H94.2307V25.4293C94.2307 24.5428 94.009 23.8944 93.5658 23.4922C93.1225 23.09 92.5233 22.893 91.7682 22.893C90.9063 22.893 90.2004 23.1721 89.6586 23.7302C89.1169 24.2884 88.846 25.1256 88.846 26.2338V30.7319H87.4014V30.7155Z" fill="white"/>
<path d="M102.316 30.9697C101.413 30.9697 100.625 30.7809 99.9439 30.3951C99.2627 30.0093 98.7291 29.4758 98.3515 28.7781C97.9739 28.0804 97.7852 27.276 97.7852 26.3649V26.1432C97.7852 25.2157 97.9739 24.4113 98.3515 23.7136C98.7291 23.0159 99.2544 22.4823 99.9193 22.0966C100.592 21.7108 101.356 21.522 102.218 21.522C103.08 21.522 103.802 21.7026 104.45 22.0637C105.099 22.4249 105.599 22.942 105.969 23.6069C106.338 24.28 106.519 25.0597 106.519 25.9627V26.6193H99.2298C99.2626 27.5797 99.5746 28.3349 100.157 28.8766C100.74 29.4183 101.471 29.6892 102.349 29.6892C103.112 29.6892 103.703 29.5086 104.122 29.1557C104.541 28.8027 104.852 28.3841 105.074 27.8916L106.314 28.4908C106.133 28.8684 105.879 29.246 105.558 29.6236C105.238 30.0011 104.811 30.313 104.294 30.5757C103.777 30.8384 103.112 30.9615 102.308 30.9615L102.316 30.9697ZM99.2462 25.4373H105.058C105.008 24.6083 104.729 23.9598 104.204 23.5002C103.679 23.0405 103.022 22.8025 102.218 22.8025C101.413 22.8025 100.732 23.0323 100.207 23.5002C99.6813 23.968 99.3612 24.6083 99.238 25.4373H99.2462Z" fill="white"/>
<path d="M108.653 30.7154V21.7848H110.056V22.8847H110.311C110.467 22.4989 110.713 22.2116 111.041 22.0228C111.37 21.8422 111.805 21.752 112.338 21.752H113.397V23.0653H112.248C111.6 23.0653 111.082 23.2459 110.688 23.607C110.294 23.9682 110.097 24.5264 110.097 25.2815V30.7236H108.653V30.7154Z" fill="white"/>
<path d="M114.391 26.291V26.0365C114.391 25.1008 114.579 24.2964 114.957 23.6233C115.335 22.9502 115.843 22.4331 116.492 22.0719C117.14 21.7026 117.846 21.522 118.61 21.522C119.545 21.522 120.268 21.7026 120.777 22.0637C121.286 22.4249 121.655 22.8189 121.901 23.2621H122.156V21.7846H123.526V32.8002C123.526 33.2844 123.395 33.6702 123.124 33.9493C122.853 34.2284 122.468 34.3679 121.959 34.3679H115.893V33.0874H121.573C121.934 33.0874 122.123 32.9069 122.123 32.5375V29.1393H121.868C121.721 29.4101 121.515 29.6728 121.245 29.9273C120.974 30.1817 120.629 30.3951 120.202 30.5593C119.775 30.7235 119.242 30.8055 118.61 30.8055C117.846 30.8055 117.132 30.625 116.492 30.2556C115.843 29.8862 115.335 29.3691 114.957 28.696C114.579 28.0229 114.391 27.2185 114.391 26.291ZM118.995 29.5251C119.923 29.5251 120.67 29.2296 121.253 28.6468C121.827 28.064 122.123 27.2596 122.123 26.2335V26.0858C122.123 25.0515 121.836 24.2471 121.253 23.6643C120.67 23.0898 119.923 22.7943 118.995 22.7943C118.068 22.7943 117.329 23.0815 116.738 23.6643C116.147 24.2471 115.852 25.0515 115.852 26.0858V26.2335C115.852 27.2596 116.147 28.064 116.738 28.6468C117.329 29.2296 118.084 29.5251 118.995 29.5251Z" fill="white"/>
<path d="M126.908 20.3896C126.588 20.3896 126.325 20.2829 126.112 20.0777C125.898 19.8725 125.792 19.6098 125.792 19.2897C125.792 18.9695 125.898 18.6905 126.112 18.4853C126.325 18.28 126.588 18.1733 126.908 18.1733C127.228 18.1733 127.482 18.28 127.696 18.4853C127.901 18.6905 128.008 18.9613 128.008 19.2897C128.008 19.618 127.901 19.8725 127.696 20.0777C127.491 20.2829 127.228 20.3896 126.908 20.3896ZM126.177 30.7156V21.785H127.622V30.7156H126.177Z" fill="white"/>
<path d="M65.7397 48.6425V35.854H67.2747V41.5341H73.2667V35.854H74.8017V48.6425H73.2667V42.9213H67.2747V48.6425H65.7397Z" fill="white"/>
<path d="M81.5243 48.897C80.6213 48.897 79.8251 48.7082 79.1438 48.3306C78.4544 47.953 77.9208 47.4195 77.535 46.73C77.1492 46.0405 76.9604 45.2278 76.9604 44.2921V44.0541C76.9604 43.1265 77.1492 42.3221 77.535 41.6244C77.9208 40.9267 78.4544 40.3932 79.1438 40.0156C79.8333 39.638 80.6296 39.4492 81.5243 39.4492C82.419 39.4492 83.2234 39.638 83.9047 40.0156C84.5942 40.3932 85.1277 40.9267 85.5135 41.6244C85.8993 42.3221 86.0881 43.1265 86.0881 44.0541V44.2921C86.0881 45.2278 85.8993 46.0405 85.5135 46.73C85.1277 47.4195 84.5942 47.953 83.9047 48.3306C83.2152 48.7082 82.419 48.897 81.5243 48.897ZM81.5243 47.6C82.4764 47.6 83.2316 47.2963 83.7979 46.6971C84.3643 46.0979 84.6516 45.2771 84.6516 44.2593V44.0951C84.6516 43.0691 84.3643 42.2565 83.7979 41.6572C83.2316 41.058 82.4764 40.7543 81.5243 40.7543C80.5721 40.7543 79.8333 41.058 79.2588 41.6572C78.6842 42.2565 78.3969 43.0773 78.3969 44.0951V44.2593C78.3969 45.2853 78.6842 46.0979 79.2588 46.6971C79.8333 47.2963 80.5885 47.6 81.5243 47.6Z" fill="white"/>
<path d="M88.3046 48.6421V39.7115H89.7082V40.8279H89.9627C90.135 40.5077 90.4141 40.2204 90.7999 39.9496C91.1857 39.6787 91.7357 39.5474 92.4416 39.5474C93.1475 39.5474 93.6974 39.7033 94.1325 40.007C94.5675 40.3107 94.8794 40.6801 95.0764 41.1234H95.3309C95.5361 40.6883 95.848 40.3107 96.2748 40.007C96.6935 39.7033 97.2845 39.5474 98.0396 39.5474C98.6388 39.5474 99.1559 39.6705 99.6074 39.9085C100.059 40.1548 100.412 40.4995 100.674 40.9592C100.937 41.4189 101.068 41.9606 101.068 42.5926V48.6421H99.6238V42.724C99.6238 42.1248 99.4514 41.6569 99.1067 41.3039C98.7619 40.9592 98.2777 40.7868 97.6538 40.7868C96.9972 40.7868 96.4554 41.0002 96.0368 41.4271C95.6182 41.8539 95.4048 42.4695 95.4048 43.2739V48.6421H93.9601V42.724C93.9601 42.1248 93.7877 41.6569 93.443 41.3039C93.0982 40.9592 92.6139 40.7868 91.9901 40.7868C91.3335 40.7868 90.7917 41.0002 90.3731 41.4271C89.9545 41.8539 89.741 42.4695 89.741 43.2739V48.6421H88.2964H88.3046Z" fill="white"/>
<path d="M107.717 48.897C106.814 48.897 106.026 48.7082 105.345 48.3224C104.664 47.9366 104.13 47.403 103.752 46.7053C103.375 46.0076 103.186 45.2032 103.186 44.2921V44.0705C103.186 43.1429 103.375 42.3385 103.752 41.6408C104.13 40.9431 104.655 40.4096 105.32 40.0238C105.993 39.638 106.757 39.4492 107.619 39.4492C108.48 39.4492 109.203 39.6298 109.851 39.991C110.5 40.3521 111 40.8692 111.37 41.5341C111.739 42.2072 111.92 42.987 111.92 43.8899V44.5466H104.631C104.664 45.5069 104.975 46.2621 105.558 46.8038C106.141 47.3456 106.872 47.6165 107.75 47.6165C108.513 47.6165 109.104 47.4359 109.523 47.0829C109.941 46.73 110.253 46.3113 110.475 45.8188L111.714 46.4181C111.534 46.7956 111.279 47.1732 110.959 47.5508C110.639 47.9284 110.212 48.2403 109.695 48.503C109.178 48.7656 108.513 48.8887 107.709 48.8887L107.717 48.897ZM104.647 43.3646H110.459C110.409 42.5355 110.13 41.8871 109.605 41.4274C109.08 40.9678 108.423 40.7297 107.619 40.7297C106.814 40.7297 106.133 40.9595 105.607 41.4274C105.082 41.8953 104.762 42.5355 104.639 43.3646H104.647Z" fill="white"/>
<path d="M117.657 48.8966C116.549 48.8966 115.614 48.6422 114.85 48.1333C114.087 47.6244 113.627 46.8117 113.471 45.7036L114.842 45.3917C114.94 45.9745 115.121 46.4342 115.392 46.7707C115.663 47.1072 115.991 47.3453 116.385 47.4848C116.779 47.6244 117.206 47.6982 117.657 47.6982C118.33 47.6982 118.856 47.5669 119.25 47.296C119.636 47.0252 119.833 46.6722 119.833 46.2208C119.833 45.7693 119.644 45.4328 119.274 45.244C118.905 45.0552 118.396 44.8992 117.748 44.7761L117.001 44.6448C116.426 44.5463 115.901 44.3985 115.433 44.1851C114.957 43.9799 114.579 43.7008 114.3 43.3479C114.021 42.9949 113.882 42.5516 113.882 42.0181C113.882 41.2137 114.194 40.5899 114.817 40.1384C115.441 39.687 116.262 39.4653 117.28 39.4653C118.298 39.4653 119.11 39.6952 119.734 40.1466C120.358 40.6063 120.768 41.2465 120.949 42.0756L119.595 42.4203C119.488 41.7719 119.225 41.3204 118.807 41.0577C118.388 40.7951 117.879 40.6637 117.272 40.6637C116.664 40.6637 116.18 40.7787 115.827 41.0003C115.474 41.2301 115.293 41.5584 115.293 41.9935C115.293 42.4285 115.458 42.7322 115.794 42.9374C116.131 43.1344 116.574 43.2904 117.14 43.3889L117.887 43.5202C118.519 43.6269 119.094 43.7829 119.595 43.9635C120.103 44.1523 120.497 44.4231 120.801 44.7761C121.097 45.129 121.253 45.5887 121.253 46.1633C121.253 47.0416 120.924 47.7147 120.276 48.1907C119.627 48.6668 118.749 48.9049 117.657 48.9049V48.8966Z" fill="white"/>
<path d="M47.1402 1.26416H0V5.43397H47.1402V1.26416Z" fill="#C0972D"/>
<path d="M18.4933 15.5874L16.4084 17.6723L0 34.0807H5.89355L7.97845 31.9958L10.0305 29.9437V29.7631H10.2111L16.8024 23.1719L18.5015 21.4727L20.2088 19.7654L20.217 19.7572H34.918H47.1484V15.5874H42.9786H18.4933Z" fill="#C0972D"/>
<path d="M20.2088 34.0809H42.9786V44.2428H0V48.4044H47.1402V46.3277V44.2428V34.0809V31.996V29.9111H20.2088V34.0809Z" fill="#C0972D"/>
</g>
<defs>
<clipPath id="clip0_115_8868">
<rect width="128" height="48.8968" fill="white"/>
</clipPath>
</defs>
</svg>
